# File created by Blade
# Date/Time:  Tue Apr 07 20:29:34 2015
# Frame Rate: 120.000 fps
#------------------------------------------------------
:FULLY-SPECIFIED
:DEGREES
1951
root 4.255729 33.455745 -4.523719 1.962754 -14.815566 -26.925089
Spine 7.023562 -4.076903 27.217363
Head 5.349272 -17.637876 -0.831885
LeftShoulder -20.000226 45.930848 13.128627
LeftArm 42.103450 -22.124577 -77.588550
LeftForeArm 2.020222 0.000000 8.270876
LeftHand 9.073349 -0.000000 -0.414100
LeftHandThumb1 -26.253704 0.000000 33.147579
RightShoulder -5.632882 -7.174309 -5.060120
RightArm 10.259057 -9.681211 72.993861
RightForeArm 33.832970 -0.000000 21.551024
RightHand 9.054988 -0.000000 18.443654
RightHandThumb1 -24.326973 -0.000000 -32.862282
LeftUpLeg -1.064316 8.537420 18.996278
LeftLeg 15.538889 -0.000000 -0.000000
LeftFoot -18.938919 15.683628 -17.762725
LeftToeBase -2.835294 -0.000000 0.000000
RightUpLeg -82.111404 -30.635147 -1.295983
RightLeg 143.364289 -0.000000 -0.000000
RightFoot 47.937174 10.394381 2.284468
RightToeBase 33.959473 -0.000000 -0.000000
1952
root 4.248560 33.463293 -4.536212 2.203907 -14.816301 -26.884491
Spine 6.881566 -3.917356 27.061906
Head 5.224196 -17.862165 -0.601808
LeftShoulder -20.048124 45.819808 13.123804
LeftArm 42.209111 -22.386690 -77.741411
LeftForeArm 2.241305 -0.000000 9.177896
LeftHand 8.971634 -0.000000 -0.187140
LeftHandThumb1 -26.253704 0.000000 33.147579
RightShoulder -5.657174 -7.415826 -5.121715
RightArm 10.131773 -10.145221 73.140416
RightForeArm 34.337517 -0.000000 21.611795
RightHand 8.697698 -0.000000 18.967042
RightHandThumb1 -24.326973 -0.000000 -32.862282
LeftUpLeg -1.295899 8.696473 18.953326
LeftLeg 15.486233 -0.000000 -0.000000
LeftFoot -18.893682 15.545154 -17.930545
LeftToeBase -2.704538 -0.000000 0.000000
RightUpLeg -81.689080 -30.283845 -1.543295
RightLeg 144.175195 -0.000000 -0.000000
RightFoot 47.599553 11.012947 2.203926
RightToeBase 34.795741 -0.000000 -0.000000
1953
root 4.246824 33.470279 -4.538544 2.420788 -14.739077 -26.829430
Spine 6.690503 -3.835529 26.927764
Head 5.111879 -18.052829 -0.447758
LeftShoulder -20.104107 45.825241 13.024578
LeftArm 42.357818 -22.597562 -77.835270
LeftForeArm 2.177347 0.000000 10.125269
LeftHand 9.038181 -0.000000 -0.038608
LeftHandThumb1 -26.253704 0.000000 33.147579
RightShoulder -5.681416 -7.732398 -5.208295
RightArm 9.997969 -10.595673 73.270659
RightForeArm 34.690516 0.000000 21.784459
RightHand 8.402836 -0.000000 19.464592
RightHandThumb1 -24.326973 -0.000000 -32.862282
LeftUpLeg -1.510477 8.804191 18.888133
LeftLeg 15.405075 -0.000000 -0.000000
LeftFoot -18.834182 15.395565 -18.047893
LeftToeBase -2.497281 -0.000000 0.000000
RightUpLeg -81.344285 -30.093676 -1.649744
RightLeg 144.905358 -0.000000 -0.000000
RightFoot 47.619279 11.126218 1.970361
RightToeBase 34.933742 -0.000000 -0.000000
1954
root 4.243805 33.477965 -4.537975 2.607490 -14.636624 -26.803595
Spine 6.537895 -3.785419 26.831643
Head 4.946030 -18.274158 -0.344828
LeftShoulder -20.186804 45.877269 12.859645
LeftArm 42.550634 -22.808337 -77.914131
LeftForeArm 2.181225 -0.000000 11.114104
LeftHand 9.018098 0.000000 0.057387
LeftHandThumb1 -26.253704 0.000000 33.147579
RightShoulder -5.763060 -8.033931 -5.308590
RightArm 9.872412 -11.080987 73.402072
RightForeArm 34.940027 -0.000000 22.024546
RightHand 8.134719 -0.000000 19.842699
RightHandThumb1 -24.326973 -0.000000 -32.862282
LeftUpLeg -1.683458 8.909658 18.866790
LeftLeg 15.304717 -0.000000 -0.000000
LeftFoot -18.737368 15.195638 -18.151466
LeftToeBase -2.432874 -0.000000 0.000000
RightUpLeg -80.940089 -29.952619 -1.778323
RightLeg 145.644534 -0.000000 -0.000000
RightFoot 47.557170 11.009782 1.904038
RightToeBase 35.295538 -0.000000 -0.000000
